<?xml version="1.0" standalone="no"?><svg xmlns="http://www.w3.org/2000/svg" viewBox="0 0 1440 320"><path fill="#FF2442" fill-opacity="1" d="M0,128L17.1,144C34.3,160,69,192,103,213.3C137.1,235,171,245,206,245.3C240,245,274,235,309,240C342.9,245,377,267,411,240C445.7,213,480,139,514,90.7C548.6,43,583,21,617,53.3C651.4,85,686,171,720,202.7C754.3,235,789,213,823,186.7C857.1,160,891,128,926,122.7C960,117,994,139,1029,176C1062.9,213,1097,267,1131,261.3C1165.7,256,1200,192,1234,176C1268.6,160,1303,192,1337,208C1371.4,224,1406,224,1423,224L1440,224L1440,320L1422.9,320C1405.7,320,1371,320,1337,320C1302.9,320,1269,320,1234,320C1200,320,1166,320,1131,320C1097.1,320,1063,320,1029,320C994.3,320,960,320,926,320C891.4,320,857,320,823,320C788.6,320,754,320,720,320C685.7,320,651,320,617,320C582.9,320,549,320,514,320C480,320,446,320,411,320C377.1,320,343,320,309,320C274.3,320,240,320,206,320C171.4,320,137,320,103,320C68.6,320,34,320,17,320L0,320Z"></path></svg>